<svg enable-background="new 0 0 52 52" height="52" viewBox="0 0 52 52" width="52" xmlns="http://www.w3.org/2000/svg"><g fill="#fff"><path d="m27.5 16c.6-.6.6-1.5 0-2.1l-11.4-11.5c-.6-.6-1.5-.6-2.1 0l-11.5 11.5c-.6.6-.6 1.5 0 2.1l2.1 2.1c.6.6 1.5.6 2.1 0l3.6-3.6c.6-.6 1.7-.2 1.7.7v21.2c0 .8.7 1.5 1.5 1.5h3c.8 0 1.5-.8 1.5-1.5v-21.2c0-.9 1.1-1.3 1.7-.7l3.6 3.6c.6.6 1.5.6 2.1 0z"/><path d="m49.5 36-2.1-2c-.6-.6-1.5-.6-2.1 0l-3.6 3.6c-.6.6-1.7.2-1.7-.7v-21.4c0-.8-.7-1.5-1.5-1.5h-3c-.8 0-1.5.8-1.5 1.5v21.2c0 .9-1.1 1.3-1.7.7l-3.6-3.6c-.6-.6-1.5-.6-2.1 0l-2.1 2.2c-.6.6-.6 1.5 0 2.1l11.5 11.5c.6.6 1.5.6 2.1 0l11.5-11.5c.5-.6.5-1.6-.1-2.1z"/></g></svg>